osim_states
version=1
nRows=4
nColumns=185
inDegrees=yes

# SIMM Motion File Header:
name osim_states
datacolumns 185
datarows 4
otherdata 1
range 0.07265107 0.07310227
endheader
time	platform_rx	platform_ry	platform_rz	platform_ty	pelvis_tilt	pelvis_list	pelvis_rotation	pelvis_tx	pelvis_ty	pelvis_tz	hip_flexion_r	hip_adduction_r	hip_rotation_r	knee_angle_r	patella_r_constrained_knee_angle	ankle_angle_r	subtalar_angle_r	mtp_angle_r	hip_flexion_l	hip_adduction_l	hip_rotation_l	knee_angle_l	patella_l_constrained_knee_angle	ankle_angle_l	subtalar_angle_l	mtp_angle_l	lumbar_extension	lumbar_bending	lumbar_rotation	arm_flex_r	arm_add_r	arm_rot_r	elbow_flex_r	pro_sup_r	wrist_flex_r	wrist_dev_r	arm_flex_l	arm_add_l	arm_rot_l	elbow_flex_l	pro_sup_l	wrist_flex_l	wrist_dev_l	platform_rx_u	platform_ry_u	platform_rz_u	platform_ty_u	pelvis_tilt_u	pelvis_list_u	pelvis_rotation_u	pelvis_tx_u	pelvis_ty_u	pelvis_tz_u	hip_flexion_r_u	hip_adduction_r_u	hip_rotation_r_u	knee_angle_r_u	patella_r_constrained_knee_angle_u	ankle_angle_r_u	subtalar_angle_r_u	mtp_angle_r_u	hip_flexion_l_u	hip_adduction_l_u	hip_rotation_l_u	knee_angle_l_u	patella_l_constrained_knee_angle_u	ankle_angle_l_u	subtalar_angle_l_u	mtp_angle_l_u	lumbar_extension_u	lumbar_bending_u	lumbar_rotation_u	arm_flex_r_u	arm_add_r_u	arm_rot_r_u	elbow_flex_r_u	pro_sup_r_u	wrist_flex_r_u	wrist_dev_r_u	arm_flex_l_u	arm_add_l_u	arm_rot_l_u	elbow_flex_l_u	pro_sup_l_u	wrist_flex_l_u	wrist_dev_l_u	glut_med1_r.activation	glut_med1_r.fiber_length	glut_med2_r.activation	glut_med2_r.fiber_length	glut_med3_r.activation	glut_med3_r.fiber_length	glut_min1_r.activation	glut_min1_r.fiber_length	glut_min2_r.activation	glut_min2_r.fiber_length	glut_min3_r.activation	glut_min3_r.fiber_length	semimem_r.activation	semimem_r.fiber_length	semiten_r.activation	semiten_r.fiber_length	bifemlh_r.activation	bifemlh_r.fiber_length	bifemsh_r.activation	bifemsh_r.fiber_length	sar_r.activation	sar_r.fiber_length	add_long_r.activation	add_long_r.fiber_length	add_brev_r.activation	add_brev_r.fiber_length	add_mag1_r.activation	add_mag1_r.fiber_length	add_mag2_r.activation	add_mag2_r.fiber_length	add_mag3_r.activation	add_mag3_r.fiber_length	tfl_r.activation	tfl_r.fiber_length	pect_r.activation	pect_r.fiber_length	grac_r.activation	grac_r.fiber_length	glut_max1_r.activation	glut_max1_r.fiber_length	glut_max2_r.activation	glut_max2_r.fiber_length	glut_max3_r.activation	glut_max3_r.fiber_length	iliacus_r.activation	iliacus_r.fiber_length	psoas_r.activation	psoas_r.fiber_length	quad_fem_r.activation	quad_fem_r.fiber_length	gem_r.activation	gem_r.fiber_length	peri_r.activation	peri_r.fiber_length	rect_fem_r.activation	rect_fem_r.fiber_length	vas_med_r.activation	vas_med_r.fiber_length	vas_int_r.activation	vas_int_r.fiber_length	vas_lat_r.activation	vas_lat_r.fiber_length	med_gas_r.activation	med_gas_r.fiber_length	lat_gas_r.activation	lat_gas_r.fiber_length	soleus_r.activation	soleus_r.fiber_length	tib_post_r.activation	tib_post_r.fiber_length	flex_dig_r.activation	flex_dig_r.fiber_length	flex_hal_r.activation	flex_hal_r.fiber_length	tib_ant_r.activation	tib_ant_r.fiber_length	per_brev_r.activation	per_brev_r.fiber_length	per_long_r.activation	per_long_r.fiber_length	per_tert_r.activation	per_tert_r.fiber_length	ext_dig_r.activation	ext_dig_r.fiber_length	ext_hal_r.activation	ext_hal_r.fiber_length	ercspn_r.activation	ercspn_r.fiber_length	ercspn_l.activation	ercspn_l.fiber_length	intobl_r.activation	intobl_r.fiber_length	intobl_l.activation	intobl_l.fiber_length	extobl_r.activation	extobl_r.fiber_length	extobl_l.activation	extobl_l.fiber_length
      0.07265107	     30.00000000	     -0.00000000	      0.00000000	      0.00000000	    -13.76925126	      2.81434478	      7.10153464	     -0.42988519	      0.93200094	      0.35904007	     45.57229744	     -5.35248788	    -11.33292234	    -47.10083857	    -47.10083857	     15.06857101	     16.55458478	      0.00001318	     52.13915936	     -0.00000000	     -9.99811353	   -101.98648811	   -101.98648811	      6.49999992	      0.00000000	     -0.00000000	    -15.82864505	     -3.70571938	     -1.21454849	      0.00000000	     -8.91003344	      0.00000000	     72.06682857	     46.23690339	     -0.00000000	      4.87402477	     -0.00000000	     -8.91003344	     -0.00000000	     72.06682857	     46.23690339	      0.00000000	      4.87402477	      0.00000000	     -0.00000000	      0.00000000	      0.00000000	     31.13696405	   -104.12052688	   -247.52615964	     -0.18986500	     -1.51770446	      0.52830342	    228.10537767	    191.94365452	     25.97725204	   -389.83758297	   -389.83758297	    131.92554905	    172.16971889	      0.00000000	     -0.00000000	     -0.00000000	      0.00000000	     -0.00000000	      0.00000000	      0.00000000	      0.00000000	     -0.00000000	   -174.77945002	     74.80771161	    264.09841022	      0.00000000	      0.00000000	      0.00000000	      0.00000000	     -0.00000000	     -0.00000000	     -0.00000000	     -0.00000000	      0.00000000	     -0.00000000	     -0.00000000	     -0.00000000	      0.00000000	      0.00000000	      0.21716986	      0.05619803	      0.24035754	      0.09556055	      0.36571588	      0.07652474	      0.13489170	      0.07494953	      0.19482510	      0.06450255	      0.34888616	      0.04304696	      0.17992959	      0.07254122	      0.47042371	      0.23924471	      0.33396660	      0.11724304	      0.21911597	      0.16170987	      0.02465975	      0.44174204	      0.02465975	      0.10140000	      0.02465975	      0.12808747	      0.07084829	      0.07875225	      0.10763633	      0.11027883	      0.17324585	      0.14460376	      0.03932345	      0.08709373	      0.02465975	      0.06241439	      0.02465975	      0.34121823	      0.18775418	      0.10633242	      0.19443196	      0.12028180	      0.21919631	      0.14848226	      0.02465975	      0.07909897	      0.02465975	      0.07208088	      0.22866012	      0.05003115	      0.30424354	      0.02003383	      0.52613463	      0.02300125	      0.21493617	      0.10777270	      0.32048970	      0.08874479	      0.37367057	      0.09052597	      0.33343911	      0.08433123	      0.36717950	      0.05382599	      0.37268925	      0.05762027	      0.54392728	      0.05307845	      0.80531474	      0.02925467	      0.80530687	      0.02437035	      0.80531474	      0.03361229	      0.19077750	      0.07999669	      0.81963461	      0.05712805	      0.81977203	      0.05266620	      0.60349143	      0.08089941	      0.60333806	      0.08922260	      0.56171272	      0.09414589	      0.13022676	      0.13405899	      0.20292544	      0.12869549	      0.02465975	      0.09105996	      0.04069421	      0.07991909	      0.11370195	      0.12044155	      0.06705339	      0.10894884
      0.07279530	     30.00000000	     -0.00000000	      0.00000000	      0.00000000	    -13.76475482	      2.79932001	      7.06583449	     -0.42991262	      0.93178216	      0.35911629	     45.60515487	     -5.32477217	    -11.32917559	    -47.15699918	    -47.15699918	     15.08755407	     16.57933658	      0.00001318	     52.13915936	     -0.00000000	     -9.99811353	   -101.98648811	   -101.98648811	      6.49999992	      0.00000000	     -0.00000000	    -15.85387794	     -3.69494222	     -1.17645940	      0.00000000	     -8.91003344	      0.00000000	     72.06682857	     46.23690339	     -0.00000000	      4.87402477	     -0.00000000	     -8.91003344	     -0.00000000	     72.06682857	     46.23690339	      0.00000000	      4.87402477	      0.00000000	     -0.00000000	      0.00000000	      0.00000000	     31.21311698	   -104.22168132	   -247.51331750	     -0.19057280	     -1.51605277	      0.52864260	    227.51570469	    192.37848889	     25.97753021	   -388.91932933	   -388.91932933	    131.30409560	    171.04969571	      0.00000000	      0.00000000	     -0.00000000	      0.00000000	     -0.00000000	      0.00000000	      0.00000000	      0.00000000	     -0.00000000	   -175.11437401	     74.63443803	    264.06746090	      0.00000000	      0.00000000	      0.00000000	      0.00000000	     -0.00000000	     -0.00000000	     -0.00000000	     -0.00000000	      0.00000000	     -0.00000000	     -0.00000000	     -0.00000000	      0.00000000	      0.00000000	      0.21694851	      0.05620939	      0.24024055	      0.09558604	      0.36565367	      0.07655729	      0.13469968	      0.07495561	      0.19469481	      0.06451527	      0.34886708	      0.04306687	      0.17976673	      0.07252765	      0.47035321	      0.23922280	      0.33391593	      0.11723959	      0.21894821	      0.16167738	      0.02463139	      0.44170046	      0.02463139	      0.10135493	      0.02463139	      0.12806111	      0.07071543	      0.07874444	      0.10741858	      0.11028201	      0.17304449	      0.14462492	      0.03926441	      0.08708192	      0.02463139	      0.06238517	      0.02463139	      0.34117254	      0.18765030	      0.10636465	      0.19430652	      0.12031552	      0.21890941	      0.14850929	      0.02463139	      0.07905945	      0.02463139	      0.07204168	      0.22841351	      0.05004319	      0.30472768	      0.02004618	      0.52660863	      0.02302320	      0.21508111	      0.10779263	      0.32074748	      0.08878284	      0.37396621	      0.09056536	      0.33371317	      0.08436944	      0.36717826	      0.05382230	      0.37268284	      0.05761620	      0.54431220	      0.05308926	      0.80695068	      0.02924887	      0.80694290	      0.02436339	      0.80695068	      0.03360870	      0.19055054	      0.07993701	      0.82113159	      0.05713657	      0.82126768	      0.05267170	      0.60347378	      0.08089639	      0.60332120	      0.08920936	      0.56170117	      0.09412528	      0.13026658	      0.13406072	      0.20334514	      0.12872570	      0.02463139	      0.09104448	      0.04063218	      0.07988921	      0.11345159	      0.12038316	      0.06698648	      0.10895577
      0.07297183	     30.00000000	     -0.00000000	      0.00000000	      0.00000000	    -13.75923689	      2.78091163	      7.02214407	     -0.42994634	      0.93151472	      0.35920964	     45.64525329	     -5.29076612	    -11.32458979	    -47.22555363	    -47.22555363	     15.11066551	     16.60941112	      0.00001318	     52.13915936	     -0.00000000	     -9.99811353	   -101.98648811	   -101.98648811	      6.49999992	      0.00000000	     -0.00000000	    -15.88482565	     -3.68178641	     -1.12984878	      0.00000000	     -8.91003344	      0.00000000	     72.06682857	     46.23690339	     -0.00000000	      4.87402477	     -0.00000000	     -8.91003344	     -0.00000000	     72.06682857	     46.23690339	      0.00000000	      4.87402477	      0.00000000	     -0.00000000	      0.00000000	      0.00000000	     31.30460566	   -104.34469057	   -247.49824366	     -0.19143902	     -1.51403584	      0.52905891	    226.79950133	    192.90901815	     25.98001491	   -387.80218673	   -387.80218673	    130.55207722	    169.71044250	      0.00000000	     -0.00000000	     -0.00000000	      0.00000000	     -0.00000000	      0.00000000	      0.00000000	      0.00000000	     -0.00000000	   -175.52199160	     74.42020698	    264.02969715	      0.00000000	      0.00000000	      0.00000000	      0.00000000	     -0.00000000	     -0.00000000	     -0.00000000	     -0.00000000	      0.00000000	     -0.00000000	     -0.00000000	     -0.00000000	      0.00000000	      0.00000000	      0.21667787	      0.05622327	      0.24009708	      0.09561720	      0.36557844	      0.07659709	      0.13446519	      0.07496304	      0.19453568	      0.06453084	      0.34884336	      0.04309122	      0.17956734	      0.07251104	      0.47026658	      0.23919596	      0.33385399	      0.11723535	      0.21874275	      0.16163772	      0.02459677	      0.44164981	      0.02459677	      0.10129969	      0.02459677	      0.12802875	      0.07055329	      0.07873470	      0.10715165	      0.11028580	      0.17279693	      0.14465065	      0.03919233	      0.08706755	      0.02459677	      0.06234938	      0.02459677	      0.34111660	      0.18752280	      0.10640402	      0.19415254	      0.12035671	      0.21855731	      0.14854221	      0.02459677	      0.07901108	      0.02459677	      0.07199370	      0.22811108	      0.05005789	      0.30532084	      0.02006132	      0.52718567	      0.02305008	      0.21525831	      0.10781697	      0.32106224	      0.08882925	      0.37432708	      0.09061344	      0.33404775	      0.08441605	      0.36717634	      0.05381778	      0.37267460	      0.05761120	      0.54478138	      0.05310244	      0.80893107	      0.02924174	      0.80892338	      0.02435485	      0.80893107	      0.03360427	      0.19027248	      0.07986400	      0.82294423	      0.05714696	      0.82307873	      0.05267841	      0.60345231	      0.08089268	      0.60330067	      0.08919323	      0.56168710	      0.09410019	      0.13032080	      0.13406289	      0.20385687	      0.12876269	      0.02459677	      0.09102554	      0.04055645	      0.07985255	      0.11314618	      0.12031175	      0.06690413	      0.10896419
      0.07310227	     30.00000000	     -0.00000000	      0.00000000	      0.00000000	    -13.75514904	      2.76729455	      6.98986002	     -0.42997135	      0.93131732	      0.35927868	     45.67480370	     -5.26557672	    -11.32120071	    -47.27608663	    -47.27608663	     15.12765877	     16.63148298	      0.00001318	     52.13915936	     -0.00000000	     -9.99811353	   -101.98648811	   -101.98648811	      6.49999992	      0.00000000	     -0.00000000	    -15.90774105	     -3.67208913	     -1.09540942	      0.00000000	     -8.91003344	      0.00000000	     72.06682857	     46.23690339	     -0.00000000	      4.87402477	     -0.00000000	     -8.91003344	     -0.00000000	     72.06682857	     46.23690339	      0.00000000	      4.87402477	      0.00000000	     -0.00000000	      0.00000000	      0.00000000	     31.37100706	   -104.43503546	   -247.48754417	     -0.19207910	     -1.51254860	      0.52936742	    226.27407304	    193.29990508	     25.98220898	   -386.98105520	   -386.98105520	    129.99127644	    168.69606148	      0.00000000	      0.00000000	     -0.00000000	      0.00000000	     -0.00000000	      0.00000000	     -0.00000000	      0.00000000	     -0.00000000	   -175.82159292	     74.26037678	    264.00185626	      0.00000000	      0.00000000	      0.00000000	      0.00000000	     -0.00000000	     -0.00000000	     -0.00000000	     -0.00000000	      0.00000000	     -0.00000000	     -0.00000000	     -0.00000000	      0.00000000	      0.00000000	      0.21647807	      0.05623352	      0.23999085	      0.09564021	      0.36552348	      0.07662647	      0.13429228	      0.07496853	      0.19441832	      0.06454234	      0.34882557	      0.04310921	      0.17941995	      0.07249877	      0.47020233	      0.23917612	      0.33380827	      0.11723220	      0.21859081	      0.16160849	      0.02457123	      0.44161255	      0.02457123	      0.10125882	      0.02457123	      0.12800476	      0.07043379	      0.07872738	      0.10695408	      0.11028853	      0.17261321	      0.14466956	      0.03913919	      0.08705698	      0.02457123	      0.06232291	      0.02457123	      0.34107524	      0.18742833	      0.10643308	      0.19403844	      0.12038709	      0.21829646	      0.14856641	      0.02457123	      0.07897534	      0.02457123	      0.07195825	      0.22788719	      0.05006871	      0.30575964	      0.02007253	      0.52760994	      0.02306996	      0.21538913	      0.10783493	      0.32129434	      0.08886346	      0.37459308	      0.09064887	      0.33429443	      0.08445040	      0.36717465	      0.05381444	      0.37266824	      0.05760750	      0.54512675	      0.05311214	      0.81037928	      0.02923645	      0.81037165	      0.02434851	      0.81037928	      0.03360098	      0.19006679	      0.07981008	      0.82427010	      0.05715462	      0.82440344	      0.05268335	      0.60343652	      0.08088993	      0.60328558	      0.08918137	      0.56167676	      0.09408176	      0.13036466	      0.13406453	      0.20423364	      0.12879003	      0.02457123	      0.09101156	      0.04050062	      0.07982539	      0.11292121	      0.12025901	      0.06684296	      0.10897037
